<svg width="16" height="16" viewBox="0 0 16 16" fill="none" xmlns="http://www.w3.org/2000/svg">
<path d="M9.5 14.2811V10.5311C9.5 10.3653 9.43415 10.2063 9.31694 10.0891C9.19973 9.9719 9.04076 9.90605 8.875 9.90605H6.375C6.20924 9.90605 6.05027 9.9719 5.93306 10.0891C5.81585 10.2063 5.75 10.3653 5.75 10.5311V14.2811C5.75 14.4468 5.68415 14.6058 5.56694 14.723C5.44973 14.8402 5.29076 14.9061 5.125 14.9061H1.375C1.20924 14.9061 1.05027 14.8402 0.933058 14.723C0.815848 14.6058 0.75 14.4468 0.75 14.2811V7.05449C0.751399 6.96799 0.770092 6.88265 0.804976 6.80349C0.839861 6.72433 0.890233 6.65295 0.953125 6.59355L7.20312 0.913864C7.31834 0.808457 7.46884 0.75 7.625 0.75C7.78116 0.75 7.93166 0.808457 8.04687 0.913864L14.2969 6.59355C14.3598 6.65295 14.4101 6.72433 14.445 6.80349C14.4799 6.88265 14.4986 6.96799 14.5 7.05449V14.2811C14.5 14.4468 14.4342 14.6058 14.3169 14.723C14.1997 14.8402 14.0408 14.9061 13.875 14.9061H10.125C9.95924 14.9061 9.80027 14.8402 9.68306 14.723C9.56585 14.6058 9.5 14.4468 9.5 14.2811Z" stroke="#5F6C72" stroke-width="1.5" stroke-linecap="round" stroke-linejoin="round"/>
</svg>
